<?xml version="1.0" encoding="iso-8859-1"?>
<!-- Generator: Adobe Illustrator 16.0.0, SVG Export Plug-In . SVG Version: 6.00 Build 0)  -->
<!DOCTYPE svg PUBLIC "-//W3C//DTD SVG 1.1//EN" "http://www.w3.org/Graphics/SVG/1.1/DTD/svg11.dtd">
<svg version="1.1" id="Layer_1" xmlns="http://www.w3.org/2000/svg" xmlns:xlink="http://www.w3.org/1999/xlink" x="0px" y="0px"
	 width="180px" height="40px" viewBox="0 0 1263 268" style="enable-background:new 0 0 1263 268;" xml:space="preserve">
<g>
	<g>
		<path style="fill-rule:evenodd;clip-rule:evenodd;fill:#FFF;" d="M1.943,4.252C422.79,4.239,843.637,4.239,1264.714,4.239
			c0,86.581,0,173.192,0,260.072c-420.771,0-841.771,0-1262.771,0C1.943,177.793,1.943,91.03,1.943,4.252z M6.48,112.786
			c9.142,0,17.397,0,26.666,0c0-21.114,0-41.584,0-64.567c8.601,9.943,15.478,17.958,22.426,25.909
			c7.466,8.542,8.095,8.533,15.47,0.153c7.048-8.007,14.068-16.04,21.102-24.063c0.69,0.372,1.381,0.744,2.072,1.116
			c0,20.296,0,40.592,0,61.475c9.064,0,17.244,0,25.795,0c0-35.118,0-69.592,0-104.25c-13.568-2.615-24.733-1.695-33.249,11.078
			c-6.496,9.742-15.266,17.966-23.332,27.216c-8.289-9.503-16.671-17.396-22.938-26.713C31.854,7.294,20.555,5.527,6.48,8.755
			C6.48,43.125,6.48,77.607,6.48,112.786z M808.388,36.101c0-5.628,0.41-11.161-0.194-16.581c-0.257-2.287-2.196-5.586-4.146-6.298
			c-24.575-8.981-49.465-11.099-73.432,1.21c-33.494,17.201-38.481,60.826-10.376,85.547c20.213,17.78,62.633,20.45,84.988,5.157
			c2.214-1.514,5.033-4.207,5.112-6.438c0.478-13.446,0.237-26.917,0.237-40.6c-14.472,0-27.568,0-40.865,0
			c0,6.363,0,12.021,0,18.029c3.525,0.165,6.522-0.166,9.222,0.583c2.038,0.565,5.194,2.486,5.217,3.844
			c0.05,3.148-0.55,8.171-2.547,9.197c-17.447,8.957-49.272,0.73-51.611-23.93c-2.245-23.672,16.604-40.732,42.647-37.429
			C784.359,29.88,795.83,33.328,808.388,36.101z M1107.109,99.598c-0.356-1.108-0.712-2.214-1.068-3.322
			c21.48-4.976,48.327-4.939,38.834-38.584c3.267-0.753,6.211-1.433,8.575-1.978c0-4.901,0-8.953,0-13.091
			c-16.385,0-32.182-0.638-47.902,0.19c-14.018,0.738-23.148,8.48-25.749,19.542c-2.756,11.725,1.143,18.917,14.679,27.203
			c0.383,0.235,0.471,0.949,0.252,0.472c-3.023,3.331-7.4,6.027-7.994,9.391c-0.62,3.507,2.409,7.657,4.012,11.981
			c-0.763,0.366-2.183,1.047-3.604,1.725c-6.898,3.287-11.746,8.066-11.446,16.332c0.297,8.203,5.437,13.247,12.38,15.818
			c16.593,6.144,33.568,6.419,50.203,0.224c9.462-3.523,14.595-12.302,13.819-21.207c-0.814-9.344-7.793-16.918-18.025-18.905
			c-5.688-1.104-11.571-1.199-17.266-2.279C1113.473,102.479,1110.336,100.803,1107.109,99.598z M142.339,113.016
			c6.925,0,13.297,0.083,19.665-0.036c2.917-0.055,6.195-1.522,8.677-0.617c13.683,4.998,26.475,4.001,36.707-6.67
			c11.906-12.417,12.987-27.751,7.762-43.425c-4.38-13.14-16.235-21.431-30.407-21.341c-6.827,0.043-13.643,1.918-21.547,3.131
			c0-12.07,0-23.867,0-35.609c-7.645,0-14.211,0-20.856,0C142.339,43.644,142.339,78.061,142.339,113.016z M533.505,77.496
			c9.337-11.875,18.043-22.945,28.017-35.628c-5.926,0-8.888,0.383-11.716-0.068c-10.812-1.725-18.225,2.385-24.103,11.602
			c-4.881,7.655-11.271,14.346-18.882,23.811c0-24.995,0-46.833,0-69.042c-7.896,0-14.857,0-22.197,0c0,35.226,0,69.951,0,104.636
			c7.662,0,14.631,0,22.409,0c0-5.744,0-10.857,0-15.97c0-5.03,0-10.059,0-15.427c1.662,0.523,2.43,0.521,2.735,0.896
			c5.308,6.522,10.6,13.059,15.815,19.655c9.583,12.12,19.521,14.907,35.156,9.469C551.77,100.252,542.903,89.207,533.505,77.496z
			 M401.078,65.08c26.453-13.619,36.243-13.11,37.473,1.947c-10.468,4.131-21.151,7.802-31.338,12.539
			c-8.528,3.964-12.903,13.732-10.303,21.816c2.901,9.017,9.729,14.131,19.077,13.416c7.862-0.602,15.569-3.235,24.377-5.198
			c8.042,9.228,18.765,6.4,28.735,1.198c3.269-1.706,4.417-7.475,7.535-13.23c-6.519,1.116-9.778,1.674-14.921,2.552
			c0-12.626,0.095-24.172-0.025-35.715c-0.146-14.287-6.495-21.974-20.633-23.006c-8.569-0.626-17.53-0.171-25.901,1.676
			C399.603,46.507,398.771,48.598,401.078,65.08z M955.142,40.723c-23.249-0.146-38.796,12.677-40.939,33.769
			c-2.016,19.84,10.63,36.197,31.368,39.882c24.521,4.355,51.809-8.928,49.505-39.949C993.617,54.792,977.906,40.867,955.142,40.723
			z M619.414,42.507c0,13.985,0.076,26.907-0.024,39.829c-0.078,9.943-6.864,17.584-15.406,17.638
			c-8.011,0.049-11.413-4.833-11.445-16.604c-0.038-13.497-0.009-26.994-0.009-40.64c-8.296,0-15.467,0-22.339,0
			c0,17.346-1.18,33.934,0.326,50.275c1.564,16.968,17.42,26.209,33.469,20.938c5.07-1.666,9.598-4.983,14.375-7.541
			c2.742,7.877,8.873,9.344,22.788,5.353c0-22.837,0-45.727,0-69.249C634.035,42.507,627.407,42.507,619.414,42.507z
			 M308.727,98.012c-14.465,2.506-14.822,2.208-14.888-9.805c-0.048-8.736,0.119-17.479-0.054-26.212
			c-0.218-11.017-4.33-17.634-15.239-19.22c-10.298-1.497-21.303-1.458-31.504,0.489c-14.969,2.856-15.988,5.841-13.232,21.531
			c25.944-13.22,34.413-12.831,37.556,2.019c-10.672,4.232-21.618,8.008-32.049,12.882c-8.742,4.087-12.547,13.205-9.807,21.968
			c2.712,8.676,9.336,13.697,18.224,13.103c8.151-0.544,16.158-3.22,25.043-5.131c7.5,6.548,17.33,7.89,28.138,1.45
			C304.228,109.112,305.484,103.685,308.727,98.012z M901.753,81.947c2.554-20.35-9.273-37.241-27.363-40.623
			c-21.762-4.064-40.054,6.596-45.292,26.4c-5.188,19.611,4.149,38.486,22.504,44.571c13.305,4.412,26.733,4.013,39.836-1.118
			c11.07-4.336,11.611-5.642,8.91-17.78c-29.244,13.569-45.882,9.849-48.408-11.451C868.406,81.947,884.808,81.947,901.753,81.947z
			 M1234.561,81.824c-0.606-5.706-0.525-10.289-1.645-14.556c-5.031-19.169-22.231-29.315-43.635-26.089
			c-18.054,2.721-30.074,18.237-29.674,38.302c0.384,19.3,13.713,33.873,34.136,35.061c9.737,0.567,19.77-1.625,29.474-3.548
			c9.474-1.878,11.965-8.376,8.939-17.323c-31.875,12.402-46.938,8.947-48.459-11.846c8.059,0,16.065,0,24.074,0
			C1216.129,81.824,1224.484,81.824,1234.561,81.824z M312.722,148.903c15.076-2.119,23.958-9.412,25.386-23.704
			c1.504-15.063,0.979-30.336,1.163-45.518c0.148-12.197,0.029-24.396,0.029-37.095c-8.136,0-15.021,0-22.477,0
			c0,23.021-0.03,45.329,0.014,67.636c0.017,8.649-2.033,16.082-11.336,19.604c1.915,5.577,3.656,10.771,5.499,15.928
			C311.413,146.909,312.183,147.938,312.722,148.903z M1033.793,43.012c-22.654-3.562-22.654-3.562-22.654,17.719
			c0,3.552,0,7.103,0,10.655c0,13.759,0,27.518,0,41.218c8.381,0,15.251,0,22.658,0c0-8.558-0.051-16.277,0.01-23.994
			c0.163-20.972,12.373-29.771,32.036-22.649c1.001-3.019,2.058-6.029,2.999-9.072c3.372-10.911-2.376-18.072-13.838-15.63
			c-5.103,1.087-9.659,5.636-13.969,9.208c-2.466,2.047-3.941,5.291-7.242,9.934C1033.793,53.091,1033.793,48.325,1033.793,43.012z
			 M359.713,41.882c0,24.562,0,47.59,0,70.985c7.257,0,13.839,0,20.985,0c0-23.611,0-46.647,0-70.04
			c-2.149-0.347-3.995-0.855-5.853-0.903C370.078,41.801,365.303,41.882,359.713,41.882z M652.091,249.42
			c6.189,0,12.387,0.189,18.567-0.04c11.783-0.438,18.661-5.146,20-16.861c1.376-12.025,1.639-24.586-0.29-36.48
			c-2.683-16.548-23.728-23.673-38.429-14.226C659.152,189.845,659.15,238.634,652.091,249.42z M27.47,225.116
			c-0.641-0.055-1.282-0.108-1.922-0.161c-0.779-13.217-1.364-26.45-2.515-39.634c-0.207-2.372-2.746-4.539-4.208-6.801
			c-0.885,2.302-2.696,4.683-2.508,6.894c1.284,15.129,3.002,30.22,4.545,45.326c0.669,6.543,1.256,13.095,1.88,19.644
			c0.905,0.076,1.81,0.154,2.715,0.229c3.766-13.095,7.531-26.191,12.015-41.788c4.543,15.73,8.338,28.862,12.131,41.993
			c0.917-0.141,1.834-0.279,2.75-0.419c2.117-22.357,4.339-44.706,6.155-67.085c0.147-1.822-2.478-3.869-3.813-5.811
			c-0.701,0.408-1.402,0.816-2.102,1.224c-1.131,15.201-2.261,30.4-3.392,45.602c-0.638-0.002-1.275-0.004-1.913-0.004
			c-2.949-10.019-5.896-20.036-8.845-30.055c-0.638-0.026-1.277-0.053-1.916-0.082C33.509,204.498,30.49,214.807,27.47,225.116z
			 M1169.711,218.999c1.185-0.717,2.369-1.435,3.555-2.15c11.353,7.622,11.958,23.285,20.641,33.577
			c1.226-0.594,3.866-1.717,3.812-1.867c-3.729-10.332-7.675-20.584-11.587-30.803c10.6-8.412,13.745-18.438,9.133-28.852
			c-4.406-9.947-12.619-12.186-33.165-8.654c0,21.438-0.123,43.042,0.233,64.636c0.028,1.727,3.366,3.4,5.167,5.099
			c0.738-0.691,1.475-1.383,2.212-2.074C1169.711,238.271,1169.711,228.634,1169.711,218.999z M147.961,179.271
			c4.53,23.734,5.876,46.404-1.092,70.099c6.825,0,14.179,0.108,21.527-0.029c9.497-0.176,14.729-5.341,16.535-14.469
			c1.892-9.56,0.462-17.981-8.679-24.437c7.68-8.04,8.938-17.121,2.194-25.429C169.516,174.004,157.121,180.793,147.961,179.271z
			 M966.819,214.331c0.369,0.038,0.738,0.074,1.106,0.11c0,4.197-0.223,8.408,0.077,12.583c0.205,2.871,0.986,5.733,1.769,8.524
			c2.752,9.809,9.362,15.636,17.628,15.104c9.336-0.602,15.793-6.368,16.527-14.983c1.219-14.291,1.268-28.848-0.027-43.125
			c-0.774-8.541-7.199-14.431-16.729-14.507c-9.595-0.076-14.894,5.939-17.053,14.378
			C968.296,199.534,967.865,207.012,966.819,214.331z M280.84,220.247c-2.074,1.668-5.054,2.852-5.366,4.533
			c-1.094,5.892-3.479,13.095-1.146,17.623c2.156,4.182,9.503,6.658,15.006,7.857c4.906,1.07,10.208-5.523,15.822-0.395
			c0.167,0.154,3.193-1.706,3.286-2.769c0.606-6.88,0.768-13.801,1.229-24.154c-4.092,4.475-6.545,7.156-9.636,10.535
			c-2.856-3.897-5.799-7.915-8.682-11.852c11.549-11.575,13.698-19.765,7.106-26.896c-5.428-5.871-12.064-6.057-18.389-1.991
			C272.958,197.313,273.196,206.35,280.84,220.247z M432.251,249.636c1.165,0.402,2.33,0.804,3.496,1.207
			c0.707-2.381,2.454-5.009,1.959-7.11c-4.658-19.751-9.586-39.442-14.792-59.057c-0.578-2.175-3.791-5.529-5.057-5.233
			c-2.343,0.546-5.36,3.057-5.989,5.33c-5.312,19.241-10.29,38.581-14.938,57.995c-0.549,2.289,1.499,5.199,2.342,7.822
			c0.987-0.213,1.973-0.423,2.958-0.636c1.647-6.516,1.443-14.814,5.491-19.016c3.62-3.755,11.929-2.992,18.665-4.32
			C428.639,235.459,430.445,242.547,432.251,249.636z M529.296,179.832c0,21.838-0.116,43.12,0.193,64.395
			c0.028,1.947,2.769,3.856,4.25,5.784c0.877-0.427,1.752-0.854,2.629-1.281c0-4.791,0-9.584,0-14.375c0-5.083,0-10.165,0-15.031
			c23.963-4.279,29.472-9.643,27.213-25.615C561.789,181.04,552.939,177.258,529.296,179.832z M1036.291,249.425
			c2.219-0.341,4.482-0.416,4.519-0.736c1.112-9.985,2.008-19.993,2.926-29.875c21.742-2.473,28.396-8.477,26.709-23.666
			c-1.536-13.848-11.629-18.414-34.153-15.143C1036.291,202.761,1036.291,225.596,1036.291,249.425z M1132.325,184.678
			c0.153-1.493,0.308-2.989,0.462-4.484c-10.791-2.558-21.979-0.679-33.609-1.047c0,23.643,0,46.438,0,69.122
			c18.323,3.326,31.182,1.791,33.576-4.894c-8.91,0-17.493,0-26.485,0c0-9.968,0-18.823,0-28.892c5.305,0,10.11,0.354,14.824-0.15
			c2.349-0.252,4.528-2.078,6.786-3.19c-2.391-0.934-4.727-2.448-7.181-2.673c-4.693-0.429-9.454-0.124-14.146-0.124
			c0-8.458,0-15.644,0-23.668C1115.713,184.678,1124.019,184.678,1132.325,184.678z M93.124,214.446
			c5.982,0,11.407,0.252,16.784-0.15c1.684-0.125,3.237-2.015,4.85-3.097c-1.71-0.947-3.374-2.594-5.141-2.712
			c-5.375-0.36-10.791-0.131-16.207-0.131c0-8.364,0-15.535,0-23.687c9.442,0,18.017,0,26.592,0c0.083-1.269,0.165-2.541,0.247-3.81
			c-10.935-4.045-22.579-0.928-34.003-1.711c0,23.985,0,46.776,0,69.48c23.183,2.829,32.27,1.554,33.27-5.404
			c-8.706,0-17.314,0-26.391,0C93.124,233.444,93.124,224.585,93.124,214.446z M726.523,243.63c0-10.552,0-19.197,0-28.383
			c2.994-0.283,5.543-0.289,7.984-0.805c4.513-0.956,8.962-2.21,13.438-3.341c-4.639-0.918-9.263-1.922-13.922-2.725
			c-2.449-0.421-4.959-0.488-7.429-0.713c0-7.647,0-14.626,0-22.666c5.36,0,10.146,0.205,14.908-0.064
			c3.898-0.222,7.764-1.013,11.643-1.55c-0.188-1.203-0.379-2.406-0.569-3.609c-11.013,0-22.024,0-33.002,0
			c0,23.425,0,46.218,0,68.915c21.926,2.459,30.299,1.45,33.662-5.057C744.144,243.63,735.646,243.63,726.523,243.63z
			 M845.798,249.429c9.979,0,19.3,0.16,28.605-0.154c1.613-0.053,3.159-2.11,4.734-3.241c-1.767-0.903-3.503-2.505-5.305-2.584
			c-6.985-0.304-13.991-0.124-20.692-0.124c0-10.298,0-19.156,0-27.146c7.109-4.448,16.315,2.302,23.58-7.721
			c-9.44,0-16.412,0-23.66,0c0-8.3,0-15.478,0-24.542c9.296,0,17.81,0,26.323,0c-0.019-1.135-0.037-2.27-0.055-3.404
			c-11.011,0-22.021,0-33.531,0C845.798,202.657,845.798,225.209,845.798,249.429z M796.067,250.167
			c0.75-0.118,1.499-0.235,2.249-0.351c6.075-21.089,12.253-42.148,18.078-63.304c0.658-2.387-0.673-5.321-1.083-8
			c-1.802,1.998-4.536,3.709-5.253,6.042c-4.269,13.913-8.071,27.97-12.031,41.978c-0.604-0.002-1.207-0.006-1.812-0.008
			c-4.595-16.277-9.19-32.554-13.786-48.831c-0.872-0.235-1.747-0.469-2.622-0.704c-0.981,2.171-3.231,4.691-2.747,6.459
			C783.167,205.752,789.667,227.945,796.067,250.167z M466.281,179.807c0,21.778-0.066,43,0.125,64.22
			c0.015,1.711,1.799,3.408,2.762,5.112c1.135-1.882,3.165-3.723,3.25-5.652c0.365-8.245,0.155-16.516,0.155-24.571
			c23.375-2.742,29.75-8.546,27.92-24.22C498.916,181.192,490.375,177.285,466.281,179.807z M910.133,249.444
			c11.066,0,20.72,0.182,30.356-0.157c1.867-0.066,3.664-2.162,5.493-3.321c-1.744-0.88-3.463-2.454-5.238-2.52
			c-7.634-0.281-15.284-0.12-23.726-0.12c0-21.992,0-42.867,0-63.744c-0.849-0.419-1.695-0.839-2.542-1.258
			c-1.448,1.934-4.127,3.85-4.154,5.803C910.021,205.378,910.133,226.636,910.133,249.444z M370.411,6.154
			c-7.488,0.577-12.227,4.419-12.735,11.907c-0.522,7.693,4.196,11.985,11.38,13.076c6.553,0.994,13.734-5.546,13.404-12.268
			C382.099,11.529,377.833,7.203,370.411,6.154z M340.323,18.529c-0.553-7.339-4.393-11.992-12.025-12.131
			c-7.594-0.139-11.896,4.336-12.538,11.788c-0.601,6.97,5.612,13.486,12.507,12.966C335.669,30.592,339.85,26.31,340.323,18.529z"
			/>
		<path style="fill-rule:evenodd;clip-rule:evenodd;" d="M6.48,112.786c0-35.178,0-69.66,0-104.03
			c14.075-3.228,25.374-1.461,34.013,11.383c6.267,9.317,14.649,17.21,22.938,26.713c8.065-9.25,16.836-17.474,23.332-27.216
			c8.515-12.772,19.68-13.692,33.249-11.078c0,34.658,0,69.133,0,104.25c-8.551,0-16.731,0-25.795,0c0-20.882,0-41.179,0-61.475
			c-0.69-0.372-1.381-0.744-2.072-1.116C85.11,58.241,78.09,66.273,71.042,74.281c-7.375,8.38-8.004,8.389-15.47-0.153
			c-6.949-7.951-13.826-15.966-22.426-25.909c0,22.983,0,43.454,0,64.567C23.877,112.786,15.622,112.786,6.48,112.786z"/>
		<path style="fill-rule:evenodd;clip-rule:evenodd;" d="M808.388,36.101c-12.558-2.772-24.028-6.22-35.748-7.708
			c-26.044-3.304-44.893,13.757-42.647,37.429c2.339,24.66,34.164,32.886,51.611,23.93c1.997-1.026,2.597-6.049,2.547-9.197
			c-0.022-1.358-3.179-3.279-5.217-3.844c-2.699-0.748-5.696-0.417-9.222-0.583c0-6.008,0-11.666,0-18.029
			c13.297,0,26.394,0,40.865,0c0,13.683,0.24,27.154-0.237,40.6c-0.079,2.232-2.898,4.924-5.112,6.438
			c-22.355,15.292-64.775,12.623-84.988-5.157c-28.105-24.721-23.118-68.346,10.376-85.547c23.967-12.309,48.856-10.191,73.432-1.21
			c1.95,0.711,3.89,4.011,4.146,6.298C808.798,24.939,808.388,30.473,808.388,36.101z"/>
		<path style="fill-rule:evenodd;clip-rule:evenodd;" d="M1107.109,99.598c3.227,1.205,6.363,2.881,9.698,3.513
			c5.694,1.08,11.577,1.174,17.266,2.279c10.232,1.987,17.211,9.562,18.025,18.905c0.775,8.905-4.357,17.683-13.819,21.207
			c-16.635,6.196-33.61,5.92-50.203-0.224c-6.943-2.571-12.083-7.615-12.38-15.818c-0.3-8.266,4.548-13.045,11.446-16.332
			c1.422-0.678,2.842-1.359,3.604-1.725c-1.603-4.324-4.632-8.474-4.012-11.981c0.594-3.364,4.971-6.061,7.994-9.391
			c0.219,0.477,0.131-0.237-0.252-0.472c-13.536-8.287-17.435-15.478-14.679-27.203c2.601-11.063,11.731-18.805,25.749-19.542
			c15.721-0.828,31.518-0.19,47.902-0.19c0,4.138,0,8.19,0,13.091c-2.364,0.545-5.309,1.224-8.575,1.978
			c9.493,33.645-17.354,33.609-38.834,38.584C1106.397,97.383,1106.753,98.49,1107.109,99.598z M1113.106,55.266
			c-6.851,0.03-13.122,6.229-13.185,13.032c-0.063,6.74,6.221,13.055,13.059,13.129c6.587,0.072,12.871-6.243,13.098-13.162
			C1126.304,61.396,1120.153,55.233,1113.106,55.266z M1111.655,138.533c8.61-3.061,18.801-1.744,18.657-11.461
			c-0.137-9.25-10.421-7.822-16.9-7.816c-6.601,0.006-16.261-0.402-16.049,8.905
			C1097.444,131.725,1106.622,135.082,1111.655,138.533z"/>
		<path style="fill-rule:evenodd;clip-rule:evenodd;" d="M142.339,113.016c0-34.955,0-69.372,0-104.568c6.645,0,13.211,0,20.856,0
			c0,11.742,0,23.539,0,35.609c7.904-1.212,14.72-3.087,21.547-3.131c14.172-0.089,26.027,8.201,30.407,21.341
			c5.225,15.674,4.144,31.008-7.762,43.425c-10.231,10.671-23.023,11.668-36.707,6.67c-2.482-0.905-5.76,0.562-8.677,0.617
			C155.636,113.099,149.264,113.016,142.339,113.016z M163.647,76.621c0,3.689,0.258,6.938-0.049,10.133
			c-0.814,8.458,4.643,12.556,11.347,12.458c5.351-0.078,11.968-2.712,15.671-6.507c6.163-6.313,6.545-22.79,0.605-28.987
			c-3.892-4.061-10.731-5.302-16.267-7.772c-0.234-0.104-0.614,0.149-0.932,0.193C160.291,58.032,164.173,68.651,163.647,76.621z"/>
		<path style="fill-rule:evenodd;clip-rule:evenodd;" d="M533.505,77.496c9.398,11.711,18.265,22.757,27.234,33.932
			c-15.635,5.438-25.572,2.651-35.156-9.469c-5.215-6.596-10.507-13.133-15.815-19.655c-0.306-0.374-1.073-0.372-2.735-0.896
			c0,5.368,0,10.396,0,15.427c0,5.112,0,10.226,0,15.97c-7.778,0-14.747,0-22.409,0c0-34.685,0-69.41,0-104.636
			c7.34,0,14.301,0,22.197,0c0,22.209,0,44.047,0,69.042c7.61-9.465,14.001-16.156,18.882-23.811
			c5.877-9.216,13.291-13.326,24.103-11.602c2.828,0.452,5.79,0.068,11.716,0.068C551.548,54.55,542.842,65.621,533.505,77.496z"/>
		<path style="fill-rule:evenodd;clip-rule:evenodd;" d="M401.078,65.08c-2.307-16.482-1.475-18.573,14.076-22.006
			c8.371-1.847,17.332-2.302,25.901-1.676c14.138,1.032,20.487,8.719,20.633,23.006c0.12,11.543,0.025,23.089,0.025,35.715
			c5.143-0.878,8.402-1.437,14.921-2.552c-3.118,5.755-4.267,11.524-7.535,13.23c-9.971,5.203-20.693,8.03-28.735-1.198
			c-8.808,1.962-16.515,4.596-24.377,5.198c-9.348,0.715-16.175-4.399-19.077-13.416c-2.601-8.084,1.775-17.853,10.303-21.816
			c10.188-4.736,20.871-8.408,31.339-12.537C437.32,51.97,427.53,51.461,401.078,65.08z M439.204,78.67
			c-5.801,2.763-11.281,3.993-14.551,7.364c-2.668,2.75-2.696,8.063-3.896,12.239c4.078,0.694,8.657,2.93,12.141,1.797
			C443.608,96.586,438.052,87.48,439.204,78.67z"/>
		<path style="fill-rule:evenodd;clip-rule:evenodd;" d="M955.142,40.723c22.765,0.144,38.476,14.068,39.934,33.702
			c2.304,31.021-24.984,44.304-49.505,39.949c-20.738-3.685-33.384-20.042-31.368-39.882
			C916.346,53.4,931.893,40.577,955.142,40.723z M938.397,78.355c0.036,15.118,4.819,22.518,14.939,23.104
			c11.424,0.664,17.39-6.901,17.771-22.53c0.392-16.148-5.521-25.061-16.506-24.873C944,54.237,938.361,62.693,938.397,78.355z"/>
		<path style="fill-rule:evenodd;clip-rule:evenodd;" d="M619.414,42.507c7.994,0,14.622,0,21.734,0c0,23.521,0,46.412,0,69.249
			c-13.915,3.991-20.046,2.524-22.789-5.355c-4.776,2.56-9.303,5.877-14.374,7.543c-16.048,5.271-31.904-3.97-33.469-20.938
			c-1.506-16.342-0.326-32.93-0.326-50.275c6.872,0,14.043,0,22.339,0c0,13.646-0.029,27.143,0.009,40.64
			c0.032,11.771,3.434,16.653,11.445,16.604c8.542-0.053,15.328-7.694,15.406-17.638C619.49,69.414,619.414,56.492,619.414,42.507z"
			/>
		<path style="fill-rule:evenodd;clip-rule:evenodd;" d="M308.727,98.012c-3.243,5.673-4.499,11.101-7.812,13.074
			c-10.808,6.44-20.638,5.099-28.138-1.45c-8.885,1.911-16.893,4.586-25.043,5.131c-8.888,0.594-15.512-4.427-18.224-13.103
			c-2.741-8.763,1.064-17.88,9.807-21.968c10.432-4.875,21.377-8.65,32.049-12.882c-3.143-14.85-11.612-15.239-37.556-2.019
			c-2.755-15.69-1.736-18.675,13.232-21.531c10.201-1.947,21.206-1.986,31.504-0.489c10.909,1.586,15.021,8.203,15.239,19.22
			c0.173,8.734,0.006,17.476,0.054,26.212C293.905,100.22,294.262,100.518,308.727,98.012z M271.821,78.332
			c-6.383,3.162-11.759,4.545-15.15,7.92c-2.568,2.56-2.606,7.659-3.77,11.628c4.035,0.871,8.536,3.332,12.02,2.313
			C275.601,97.07,271.228,87.951,271.821,78.332z"/>
		<path style="fill-rule:evenodd;clip-rule:evenodd;" d="M901.753,81.947c-16.945,0-33.347,0-49.813,0
			c2.526,21.3,19.164,25.021,48.408,11.451c2.701,12.139,2.16,13.444-8.91,17.78c-13.103,5.131-26.531,5.529-39.836,1.118
			c-18.354-6.085-27.692-24.96-22.504-44.571c5.238-19.805,23.53-30.465,45.292-26.4C892.479,44.706,904.307,61.598,901.753,81.947z
			 M852.58,69.27c10.134,0,19.565,0,29.023,0c-0.596-10.364-4.768-14.863-13.602-15.207C858.933,53.708,854.19,58.116,852.58,69.27z
			"/>
		<path style="fill-rule:evenodd;clip-rule:evenodd;" d="M1234.561,81.824c-10.076,0-18.432,0-26.789,0c-8.009,0-16.016,0-24.074,0
			c1.521,20.793,16.584,24.249,48.459,11.846c3.025,8.947,0.534,15.444-8.939,17.323c-9.704,1.924-19.736,4.116-29.474,3.548
			c-20.423-1.188-33.752-15.761-34.136-35.061c-0.4-20.065,11.62-35.581,29.674-38.302c21.403-3.226,38.604,6.92,43.635,26.089
			C1234.035,71.535,1233.954,76.118,1234.561,81.824z M1213.86,69.404c-2.467-11.75-7.015-15.782-16.117-15.321
			c-8.829,0.446-12.854,4.964-13.414,15.321C1193.928,69.404,1203.509,69.404,1213.86,69.404z"/>
		<path style="fill-rule:evenodd;clip-rule:evenodd;" d="M312.722,148.903c-0.539-0.966-1.309-1.994-1.721-3.15
			c-1.843-5.157-3.584-10.351-5.499-15.928c9.303-3.522,11.353-10.955,11.336-19.604c-0.044-22.307-0.014-44.615-0.014-67.636
			c7.456,0,14.341,0,22.477,0c0,12.698,0.119,24.897-0.029,37.095c-0.184,15.182,0.341,30.456-1.163,45.518
			C336.68,139.492,327.797,146.784,312.722,148.903z"/>
		<path style="fill-rule:evenodd;clip-rule:evenodd;" d="M1033.793,43.012c0,5.313,0,10.08,0,17.389
			c3.301-4.643,4.776-7.886,7.242-9.934c4.31-3.573,8.866-8.121,13.969-9.208c11.462-2.442,17.21,4.719,13.838,15.63
			c-0.941,3.043-1.998,6.053-2.999,9.072c-19.663-7.122-31.873,1.677-32.036,22.649c-0.061,7.717-0.01,15.437-0.01,23.994
			c-7.407,0-14.277,0-22.658,0c0-13.7,0-27.459,0-41.218c0-3.552,0-7.103,0-10.655C1011.139,39.45,1011.139,39.45,1033.793,43.012z"
			/>
		<path style="fill-rule:evenodd;clip-rule:evenodd;" d="M359.713,41.882c5.59,0,10.365-0.082,15.132,0.042
			c1.858,0.047,3.704,0.556,5.853,0.903c0,23.393,0,46.429,0,70.04c-7.146,0-13.728,0-20.985,0
			C359.713,89.473,359.713,66.444,359.713,41.882z"/>
		<path style="fill-rule:evenodd;clip-rule:evenodd;" d="M652.091,249.42c7.06-10.786,7.062-59.575-0.151-67.607
			c14.701-9.448,35.746-2.323,38.429,14.226c1.929,11.894,1.666,24.456,0.29,36.48c-1.339,11.715-8.217,16.423-20,16.861
			C664.478,249.609,658.28,249.42,652.091,249.42z M664.81,242.883c13.956,0.533,18.087-2.391,19.177-15.228
			c0.811-9.554,0.794-19.333-0.264-28.854c-1.318-11.881-6.48-14.856-18.913-12.509C664.81,204.869,664.81,223.521,664.81,242.883z"
			/>
		<path style="fill-rule:evenodd;clip-rule:evenodd;" d="M27.47,225.116c3.02-10.31,6.039-20.619,9.059-30.928
			c0.639,0.029,1.277,0.055,1.916,0.082c2.948,10.019,5.896,20.036,8.845,30.055c0.638,0,1.275,0.002,1.913,0.004
			c1.131-15.201,2.261-30.4,3.392-45.602c0.7-0.408,1.401-0.816,2.102-1.224c1.336,1.941,3.96,3.989,3.813,5.811
			c-1.816,22.379-4.038,44.729-6.155,67.085c-0.917,0.14-1.833,0.279-2.75,0.419c-3.793-13.131-7.587-26.262-12.131-41.993
			c-4.484,15.596-8.25,28.693-12.015,41.788c-0.905-0.076-1.81-0.154-2.715-0.229c-0.624-6.548-1.211-13.101-1.88-19.644
			c-1.543-15.106-3.262-30.197-4.545-45.326c-0.188-2.211,1.623-4.592,2.508-6.894c1.462,2.262,4.001,4.429,4.208,6.801
			c1.151,13.184,1.736,26.417,2.515,39.634C26.188,225.008,26.829,225.061,27.47,225.116z"/>
		<path style="fill-rule:evenodd;clip-rule:evenodd;" d="M1169.711,218.999c0,9.636,0,19.273,0,28.911
			c-0.737,0.691-1.474,1.383-2.212,2.074c-1.801-1.698-5.139-3.372-5.167-5.099c-0.356-21.594-0.233-43.197-0.233-64.636
			c20.546-3.531,28.759-1.292,33.165,8.654c4.612,10.414,1.467,20.44-9.133,28.852c3.912,10.218,7.857,20.471,11.587,30.803
			c0.055,0.15-2.586,1.273-3.812,1.867c-8.683-10.292-9.288-25.955-20.641-33.577
			C1172.08,217.564,1170.896,218.281,1169.711,218.999z M1170.104,214.763c7.267-3.317,14.648-4.375,16.995-8.383
			c2.523-4.313,2.366-12.792-0.417-16.848c-2.549-3.719-10.158-3.968-16.578-6.091
			C1170.104,194.463,1170.104,202.74,1170.104,214.763z"/>
		<path style="fill-rule:evenodd;clip-rule:evenodd;" d="M147.961,179.271c9.159,1.522,21.554-5.268,30.485,5.736
			c6.744,8.308,5.486,17.389-2.194,25.429c9.141,6.456,10.57,14.877,8.679,24.437c-1.807,9.127-7.038,14.292-16.535,14.469
			c-7.348,0.137-14.702,0.029-21.527,0.029C153.838,225.676,152.492,203.006,147.961,179.271z M158.361,245.454
			c6.915-2.822,14.955-3.625,17.109-7.609c2.681-4.956,2.346-13.36-0.059-18.78c-2.92-6.584-10.484-5.362-17.05-4.133
			C158.361,224.623,158.361,233.503,158.361,245.454z M158.482,185.456c0,7.548,0,14.732,0,21.843
			c11.748,1.283,16.032-1.372,16.474-9.719C175.433,188.568,171.452,185.35,158.482,185.456z"/>
		<path style="fill-rule:evenodd;clip-rule:evenodd;" d="M966.819,214.331c1.046-7.319,1.477-14.797,3.298-21.917
			c2.159-8.438,7.458-14.454,17.053-14.378c9.53,0.076,15.955,5.966,16.729,14.507c1.295,14.277,1.246,28.835,0.027,43.125
			c-0.734,8.615-7.191,14.381-16.527,14.983c-8.266,0.531-14.876-5.296-17.628-15.104c-0.782-2.791-1.563-5.653-1.769-8.524
			c-0.3-4.174-0.077-8.385-0.077-12.583C967.558,214.404,967.188,214.369,966.819,214.331z M999.401,214.72
			c-0.601-7.393,0.008-14.175-2.036-20.029c-1.383-3.958-6.446-9.07-9.967-9.152c-3.485-0.08-9.898,5.281-10.169,8.644
			c-1.092,13.594-0.923,27.389,0.249,40.985c0.27,3.129,6.428,8.08,9.743,7.975c3.435-0.108,8.472-4.771,9.665-8.457
			C999.007,228.133,998.756,220.814,999.401,214.72z"/>
		<path style="fill-rule:evenodd;clip-rule:evenodd;" d="M280.84,220.247c-7.644-13.897-7.882-22.934-0.77-27.507
			c6.324-4.066,12.961-3.88,18.389,1.991c6.592,7.131,4.443,15.321-7.106,26.896c2.883,3.938,5.826,7.955,8.682,11.852
			c3.091-3.379,5.543-6.061,9.636-10.535c-0.461,10.353-0.623,17.273-1.229,24.154c-0.093,1.063-3.119,2.922-3.286,2.769
			c-5.613-5.129-10.916,1.465-15.822,0.395c-5.503-1.199-12.85-3.675-15.006-7.857c-2.333-4.528,0.052-11.731,1.146-17.623
			C275.786,223.099,278.766,221.915,280.84,220.247z M285.12,224.835c-6.078,4.444-8.936,9.353-4.369,15.159
			c4.266,5.421,9.726,4.831,15.602,0.03C292.492,234.805,288.937,229.997,285.12,224.835z M287.023,215.078
			c5.806-3.459,10.987-7.239,7.012-14.416c-1.138-2.055-7.9-3.689-9.346-2.414C278.115,204.048,282.146,209.511,287.023,215.078z"/>
		<path style="fill-rule:evenodd;clip-rule:evenodd;" d="M432.251,249.636c-1.806-7.089-3.612-14.177-5.864-23.019
			c-6.736,1.328-15.045,0.565-18.665,4.32c-4.048,4.201-3.844,12.5-5.491,19.016c-0.986,0.212-1.972,0.423-2.958,0.636
			c-0.843-2.623-2.891-5.533-2.342-7.822c4.648-19.414,9.626-38.753,14.938-57.995c0.628-2.273,3.646-4.784,5.989-5.33
			c1.267-0.296,4.479,3.059,5.057,5.233c5.206,19.615,10.134,39.306,14.792,59.057c0.495,2.101-1.252,4.729-1.959,7.11
			C434.581,250.44,433.416,250.038,432.251,249.636z M418.163,192.093c-0.627,0.055-1.254,0.11-1.882,0.165
			c-2.181,9.454-4.362,18.907-6.687,28.979c5.688,0,10.055,0,15.487,0C422.659,211.031,420.411,201.562,418.163,192.093z"/>
		<path style="fill-rule:evenodd;clip-rule:evenodd;" d="M529.296,179.832c23.643-2.573,32.493,1.208,34.286,13.876
			c2.258,15.972-3.25,21.336-27.213,25.615c0,4.866,0,9.947,0,15.031c0,4.791,0,9.584,0,14.375
			c-0.877,0.427-1.752,0.854-2.629,1.281c-1.481-1.928-4.222-3.837-4.25-5.784C529.18,222.951,529.296,201.67,529.296,179.832z
			 M536.925,214.78c7.294-3.529,14.26-4.869,17.429-9.074c2.547-3.377,2.573-11.945-0.038-15.097
			c-3.315-3.998-10.427-4.85-17.391-7.66C536.925,194.234,536.925,202.459,536.925,214.78z"/>
		<path style="fill-rule:evenodd;clip-rule:evenodd;" d="M1036.291,249.425c0-23.829,0-46.664,0-69.419
			c22.524-3.271,32.617,1.294,34.153,15.143c1.687,15.189-4.967,21.193-26.709,23.666c-0.918,9.882-1.813,19.89-2.926,29.875
			C1040.773,249.01,1038.51,249.084,1036.291,249.425z M1043.508,185.448c0,9.099,0,17.569,0,25.964
			c14.426,1.167,19.207-2.154,19.449-12.88C1063.198,187.883,1058.604,184.604,1043.508,185.448z"/>
		<path style="fill-rule:evenodd;clip-rule:evenodd;" d="M1132.325,184.678c-8.307,0-16.612,0-25.773,0c0,8.024,0,15.21,0,23.668
			c4.692,0,9.453-0.306,14.146,0.124c2.454,0.226,4.79,1.74,7.181,2.673c-2.258,1.112-4.438,2.938-6.786,3.19
			c-4.714,0.504-9.52,0.15-14.824,0.15c0,10.068,0,18.924,0,28.892c8.992,0,17.575,0,26.485,0
			c-2.395,6.685-15.253,8.22-33.576,4.894c0-22.683,0-45.479,0-69.122c11.631,0.368,22.818-1.511,33.609,1.047
			C1132.633,181.689,1132.479,183.185,1132.325,184.678z"/>
		<path style="fill-rule:evenodd;clip-rule:evenodd;" d="M93.124,214.446c0,10.139,0,18.998,0,28.778c9.077,0,17.685,0,26.391,0
			c-1,6.958-10.086,8.233-33.27,5.404c0-22.704,0-45.495,0-69.48c11.425,0.784,23.068-2.334,34.003,1.711
			c-0.082,1.27-0.164,2.541-0.247,3.81c-8.575,0-17.15,0-26.592,0c0,8.152,0,15.323,0,23.687c5.416,0,10.831-0.229,16.207,0.131
			c1.767,0.118,3.43,1.765,5.141,2.712c-1.613,1.082-3.166,2.971-4.85,3.097C104.53,214.699,99.105,214.446,93.124,214.446z"/>
		<path style="fill-rule:evenodd;clip-rule:evenodd;" d="M726.523,243.63c9.123,0,17.62,0,26.713,0
			c-3.363,6.507-11.736,7.516-33.662,5.057c0-22.697,0-45.49,0-68.915c10.978,0,21.989,0,33.002,0
			c0.19,1.203,0.381,2.406,0.569,3.609c-3.879,0.537-7.744,1.328-11.643,1.55c-4.762,0.269-9.548,0.064-14.908,0.064
			c0,8.04,0,15.019,0,22.666c2.47,0.226,4.979,0.292,7.429,0.713c4.659,0.803,9.283,1.807,13.922,2.725
			c-4.476,1.131-8.925,2.385-13.438,3.341c-2.441,0.516-4.99,0.522-7.984,0.805C726.523,224.433,726.523,233.078,726.523,243.63z"/>
		<path style="fill-rule:evenodd;clip-rule:evenodd;" d="M845.798,249.429c0-24.22,0-46.772,0-68.917c11.511,0,22.521,0,33.531,0
			c0.018,1.135,0.036,2.27,0.055,3.404c-8.514,0-17.027,0-26.323,0c0,9.064,0,16.243,0,24.542c7.248,0,14.22,0,23.66,0
			c-7.265,10.023-16.471,3.273-23.58,7.721c0,7.99,0,16.848,0,27.146c6.701,0,13.707-0.18,20.692,0.124
			c1.802,0.08,3.538,1.681,5.305,2.584c-1.575,1.131-3.121,3.188-4.734,3.241C865.098,249.589,855.776,249.429,845.798,249.429z"/>
		<path style="fill-rule:evenodd;clip-rule:evenodd;" d="M796.067,250.167c-6.4-22.222-12.9-44.416-19.007-66.719
			c-0.484-1.769,1.766-4.289,2.747-6.459c0.875,0.235,1.75,0.469,2.622,0.704c4.596,16.277,9.191,32.554,13.786,48.831
			c0.604,0.002,1.208,0.006,1.812,0.008c3.96-14.008,7.763-28.064,12.031-41.978c0.717-2.332,3.451-4.043,5.253-6.042
			c0.41,2.679,1.741,5.613,1.083,8c-5.825,21.156-12.003,42.214-18.078,63.304C797.566,249.932,796.817,250.05,796.067,250.167z"/>
		<path style="fill-rule:evenodd;clip-rule:evenodd;" d="M466.281,179.807c24.094-2.521,32.635,1.385,34.211,14.888
			c1.83,15.674-4.545,21.478-27.92,24.22c0,8.055,0.21,16.326-0.155,24.571c-0.085,1.93-2.115,3.771-3.25,5.652
			c-0.963-1.704-2.747-3.4-2.762-5.112C466.214,222.807,466.281,201.585,466.281,179.807z M473.141,182.414
			c0,12.03,0,20.256,0,31.542c6.903-2.641,14.215-3.32,17.423-7.307c2.787-3.461,3.129-12.264,0.556-15.792
			C488.095,186.71,480.758,185.708,473.141,182.414z"/>
		<path style="fill-rule:evenodd;clip-rule:evenodd;" d="M910.133,249.444c0-22.808-0.112-44.066,0.189-65.317
			c0.027-1.953,2.706-3.869,4.154-5.803c0.847,0.419,1.693,0.839,2.542,1.258c0,20.876,0,41.751,0,63.744
			c8.441,0,16.092-0.161,23.726,0.12c1.775,0.066,3.494,1.64,5.238,2.52c-1.829,1.159-3.626,3.254-5.493,3.321
			C930.853,249.626,921.199,249.444,910.133,249.444z"/>
		<path style="fill-rule:evenodd;clip-rule:evenodd;" d="M370.411,6.154c7.423,1.049,11.688,5.375,12.049,12.715
			c0.33,6.721-6.851,13.262-13.404,12.268c-7.184-1.091-11.902-5.383-11.38-13.076C358.184,10.573,362.923,6.73,370.411,6.154z"/>
		<path style="fill-rule:evenodd;clip-rule:evenodd;" d="M340.323,18.529c-0.474,7.78-4.654,12.063-12.056,12.623
			c-6.895,0.52-13.107-5.996-12.507-12.966c0.643-7.452,4.944-11.926,12.538-11.788C335.93,6.537,339.77,11.19,340.323,18.529z"/>
		<path style="fill-rule:evenodd;clip-rule:evenodd;fill:#FFF;" d="M1113.106,55.266c7.047-0.032,13.197,6.131,12.972,13
			c-0.227,6.918-6.511,13.233-13.098,13.162c-6.838-0.074-13.121-6.389-13.059-13.129
			C1099.984,61.495,1106.256,55.296,1113.106,55.266z"/>
		<path style="fill-rule:evenodd;clip-rule:evenodd;fill:#FFF;" d="M1111.655,138.533c-5.033-3.451-14.211-6.808-14.292-10.372
			c-0.212-9.308,9.448-8.899,16.049-8.905c6.479-0.006,16.764-1.435,16.9,7.816C1130.456,136.79,1120.266,135.473,1111.655,138.533z
			"/>
		<path style="fill-rule:evenodd;clip-rule:evenodd;fill:#FFF;" d="M163.647,76.621c0.525-7.97-3.357-18.588,10.375-20.482
			c0.318-0.044,0.697-0.298,0.932-0.193c5.535,2.47,12.375,3.711,16.267,7.772c5.94,6.197,5.558,22.674-0.605,28.987
			c-3.703,3.795-10.32,6.429-15.671,6.507c-6.704,0.099-12.161-4-11.347-12.458C163.905,83.558,163.647,80.31,163.647,76.621z"/>
		<path style="fill-rule:evenodd;clip-rule:evenodd;fill:#FFF;" d="M439.204,78.67c-1.152,8.811,4.404,17.917-6.306,21.4
			c-3.483,1.133-8.063-1.103-12.141-1.797c1.199-4.177,1.228-9.49,3.896-12.239C427.923,82.663,433.403,81.433,439.204,78.67z"/>
		<path style="fill-rule:evenodd;clip-rule:evenodd;fill:#FFF;" d="M938.397,78.355c-0.036-15.662,5.603-24.118,16.204-24.298
			c10.984-0.188,16.897,8.725,16.506,24.873c-0.381,15.628-6.347,23.194-17.771,22.53
			C943.217,100.873,938.434,93.473,938.397,78.355z"/>
		<path style="fill-rule:evenodd;clip-rule:evenodd;fill:#FFF;" d="M271.821,78.332c-0.593,9.619,3.78,18.738-6.899,21.862
			c-3.484,1.019-7.985-1.442-12.02-2.313c1.163-3.97,1.201-9.068,3.77-11.628C260.062,82.877,265.438,81.494,271.821,78.332z"/>
		<path style="fill-rule:evenodd;clip-rule:evenodd;fill:#FFF;" d="M852.58,69.27c1.61-11.154,6.353-15.562,15.422-15.207
			c8.834,0.344,13.006,4.843,13.602,15.207C872.146,69.27,862.714,69.27,852.58,69.27z"/>
		<path style="fill-rule:evenodd;clip-rule:evenodd;fill:#FFF;" d="M1213.86,69.404c-10.352,0-19.933,0-29.531,0
			c0.561-10.357,4.585-14.875,13.414-15.321C1206.846,53.623,1211.394,57.655,1213.86,69.404z"/>
		<path style="fill-rule:evenodd;clip-rule:evenodd;fill:#FFF;" d="M664.81,242.883c0-19.362,0-38.014,0-56.59
			c12.433-2.347,17.595,0.628,18.913,12.509c1.058,9.521,1.074,19.3,0.264,28.854C682.896,240.492,678.766,243.416,664.81,242.883z"
			/>
		<path style="fill-rule:evenodd;clip-rule:evenodd;fill:#FFF;" d="M1170.104,214.763c0-12.023,0-20.3,0-31.323
			c6.42,2.124,14.029,2.372,16.578,6.091c2.783,4.057,2.94,12.535,0.417,16.848C1184.752,210.388,1177.37,211.446,1170.104,214.763z
			"/>
		<path style="fill-rule:evenodd;clip-rule:evenodd;fill:#FFF;" d="M158.361,245.454c0-11.951,0-20.832,0-30.522
			c6.566-1.229,14.13-2.452,17.05,4.133c2.404,5.419,2.739,13.824,0.059,18.78C173.315,241.83,165.275,242.632,158.361,245.454z"/>
		<path style="fill-rule:evenodd;clip-rule:evenodd;fill:#FFF;" d="M158.482,185.456c12.969-0.106,16.951,3.112,16.474,12.124
			c-0.442,8.347-4.727,11.002-16.474,9.719C158.482,200.188,158.482,193.004,158.482,185.456z"/>
		<path style="fill-rule:evenodd;clip-rule:evenodd;fill:#FFF;" d="M999.401,214.72c-0.646,6.095-0.395,13.414-2.515,19.966
			c-1.193,3.687-6.23,8.349-9.665,8.457c-3.315,0.104-9.474-4.846-9.743-7.975c-1.172-13.596-1.341-27.391-0.249-40.985
			c0.271-3.362,6.684-8.723,10.169-8.644c3.521,0.082,8.584,5.194,9.967,9.152C999.409,200.545,998.801,207.327,999.401,214.72z"/>
		<path style="fill-rule:evenodd;clip-rule:evenodd;fill:#FFF;" d="M285.12,224.835c3.817,5.161,7.372,9.969,11.232,15.189
			c-5.876,4.801-11.336,5.391-15.602-0.03C276.185,234.188,279.042,229.279,285.12,224.835z"/>
		<path style="fill-rule:evenodd;clip-rule:evenodd;fill:#FFF;" d="M287.023,215.078c-4.877-5.567-8.908-11.03-2.334-16.829
			c1.446-1.275,8.208,0.358,9.346,2.414C298.011,207.839,292.83,211.619,287.023,215.078z"/>
		<path style="fill-rule:evenodd;clip-rule:evenodd;fill:#FFF;" d="M418.163,192.093c2.248,9.469,4.496,18.938,6.919,29.144
			c-5.433,0-9.8,0-15.487,0c2.324-10.072,4.505-19.525,6.687-28.979C416.909,192.203,417.536,192.148,418.163,192.093z"/>
		<path style="fill-rule:evenodd;clip-rule:evenodd;fill:#FFF;" d="M536.925,214.78c0-12.321,0-20.546,0-31.831
			c6.964,2.81,14.076,3.662,17.391,7.66c2.611,3.152,2.584,11.719,0.038,15.097C551.185,209.911,544.219,211.251,536.925,214.78z"/>
		<path style="fill-rule:evenodd;clip-rule:evenodd;fill:#FFF;" d="M1043.508,185.448c15.096-0.845,19.69,2.435,19.449,13.083
			c-0.242,10.727-5.023,14.047-19.449,12.88C1043.508,203.018,1043.508,194.547,1043.508,185.448z"/>
		<path style="fill-rule:evenodd;clip-rule:evenodd;fill:#FFF;" d="M473.141,182.414c7.617,3.294,14.954,4.296,17.979,8.444
			c2.573,3.528,2.231,12.33-0.556,15.792c-3.208,3.987-10.52,4.666-17.423,7.307C473.141,202.67,473.141,194.444,473.141,182.414z"
			/>
	</g>
</g>
</svg>
